# xmcd
#
# Track frame offsets: 
#        150
#        14659
#        32164
#        49782
#        59398
#        90435
#        104688
#        122090
#        140022
#        156614
#        183930
#        206323
#        229050
#        237601
#        266968
#        289901
#        324477
#
# Disc length: 4666 seconds
#
# Revision: 0
# Processed by: cddbd v1.5.2PL0 Copyright (c) Steve Scherf et al.
# Submitted via: ExactAudioCopy v0.99pb4
#
DISCID=05123811
DTITLE=Rick Moore - Better Off With the Blues
DYEAR=2009
DGENRE=Blues
TTITLE0=Satisfied Man
TTITLE1=Better off with the Blues
TTITLE2=Take It Down to Memphis
TTITLE3=Good Man Gone Bad
TTITLE4=(I Wanna) Get Funky
TTITLE5=Hello Darkness
TTITLE6=Come and Go with Me
TTITLE7=She's Allright
TTITLE8=Act of Faith
TTITLE9=Dark Before Daylight
TTITLE10=Memphis Stripper
TTITLE11=Sell My Monkey
TTITLE12=Fire in the Delta
TTITLE13=Guilty
TTITLE14=Chicken House Blues
TTITLE15=I Wanna Get Funky
TTITLE16=Let Me Down Easy
EXTD=
EXTT0=
EXTT1=
EXTT2=
EXTT3=
EXTT4=
EXTT5=
EXTT6=
EXTT7=
EXTT8=
EXTT9=
EXTT10=
EXTT11=
EXTT12=
EXTT13=
EXTT14=
EXTT15=
EXTT16=
PLAYORDER=
